<svg width="148" height="138" viewBox="0 0 148 138" fill="none" xmlns="http://www.w3.org/2000/svg">
<path d="M138.452 54.9301H123.894C121.491 49.2543 118.014 44.0241 113.689 39.4185V2C100.004 2 88.1775 9.9585 82.5858 21.5C76.9611 20.0756 71.0114 19.3049 64.8535 19.3049C30.1415 19.3049 2 43.6041 2 73.5791C2 88.7108 9.17324 102.393 20.7403 112.236V135.015H45.9197V125.344C51.895 126.973 58.2537 127.853 64.8535 127.853C71.4534 127.853 77.8121 126.973 83.7874 125.344V134.464H108.967V112.232C115.523 106.651 120.673 99.8396 123.898 92.228H138.456C142.086 92.228 145.03 89.2842 145.03 85.6538V61.5007C145.027 57.8702 142.083 54.9301 138.452 54.9301Z" fill="white" stroke="#33404F" stroke-width="4" stroke-miterlimit="10"/>
</svg>
